<svg xmlns="http://www.w3.org/2000/svg">
    <symbol xmlns="http://www.w3.org/2000/svg" fill="none" viewBox="0 0 188 40" id="logo-gazprombank">
        <g clip-path="url(#clip0_5030_1450)">
            <path fill-rule="evenodd" clip-rule="evenodd"
                  d="M0.689762 20C0.689762 9.36005 9.28526 0.685197 19.8439 0.685197C30.4159 0.685197 39.0114 9.34712 39.0114 20C39.0114 30.6529 30.4159 39.3148 19.8439 39.3148C9.28526 39.3148 0.689762 30.6529 0.689762 20ZM0 20C0 31.0278 8.90059 40 19.8439 40C30.7873 40 39.6879 31.0278 39.6879 20C39.7011 8.9722 30.7873 0 19.8439 0C8.90059 0 0 8.9722 0 20Z"
                  fill="currentColor"/>
            <path fill-rule="evenodd" clip-rule="evenodd"
                  d="M32.4722 17.9701C32.3263 18.0994 32.1671 18.2286 31.9814 18.3579C30.8804 19.2112 29.156 19.8835 26.7551 20.5299C21.7676 21.8744 18.1596 22.0813 14.0343 23.0897C13.2384 23.2836 12.4027 23.5551 11.6201 23.8783C12.4027 24.2661 13.2251 24.6281 14.0741 24.9513C15.7454 24.473 16.5413 24.2532 18.9687 23.8395C19.884 23.6844 22.7226 23.1802 24.7919 22.7406C28.4928 21.952 33.918 20.2325 32.4722 17.9701ZM30.0845 13.2771C29.3019 12.9151 28.3071 12.5661 27.2592 12.2817C26.7949 12.6566 26.2378 12.9927 25.4684 13.2901C26.7684 13.5228 27.7632 13.8848 28.8509 14.208C29.0631 14.3114 29.9519 13.4711 30.0845 13.2771ZM11.9385 18.2674C16.7801 16.8324 21.8604 16.3928 27.0071 15.0095C24.9909 14.4665 23.8899 14.2338 21.7676 14.4795C18.6769 14.8414 15.2812 15.5266 12.3762 16.3928C11.2354 16.729 5.23982 18.4484 6.96423 20.8402C6.96423 20.8789 7.99887 19.431 11.9385 18.2674ZM8.59578 26.5027C8.58252 26.9552 8.86107 27.3431 9.44472 27.8343C9.52431 27.5887 9.63042 27.4206 9.80286 27.1879C9.39166 26.9681 8.98046 26.7354 8.59578 26.5027ZM10.864 26.27C11.2222 26.0502 11.6599 25.8305 12.164 25.6365C11.4742 25.3521 10.7712 25.0418 10.0549 24.7057C9.72328 24.9126 9.44472 25.1194 9.20596 25.3521C9.76307 25.6624 10.3069 25.9727 10.864 26.27ZM29.4744 15.9016C28.4928 16.3541 27.1 16.8324 25.0838 17.3366C23.4389 17.7503 19.433 18.3321 15.122 19.2758C13.7557 19.5732 10.0682 20.4523 8.2509 22.0037C8.75496 22.4174 9.07331 22.5208 9.63042 22.8311C10.3865 22.3528 11.3946 21.8873 12.9201 21.4736C15.5597 20.7626 17.5362 20.4523 19.9105 20.0774C22.2716 19.7025 26.702 18.7587 29.1693 17.8796C29.9651 17.5822 30.708 17.2202 31.2651 16.7807C31.1059 16.5997 29.5274 15.8369 29.4744 15.9016ZM30.9069 15.0224C31.3845 15.2681 31.8222 15.4361 32.2467 15.7335C32.5518 15.1517 32.366 14.7768 31.7293 14.2338C31.4906 14.5312 31.1988 14.7897 30.9069 15.0224ZM8.35702 23.8395C7.93255 23.5939 7.62746 23.4258 7.26931 23.1672C7.07034 23.5939 7.44176 24.0722 7.82643 24.292C7.99887 24.1239 8.18458 23.9817 8.35702 23.8395ZM28.9703 10.3553C28.8774 10.6915 28.5326 11.0664 28.2805 11.3379C29.0101 11.5318 29.7396 11.8033 30.4427 12.0619C30.3631 11.4155 29.607 10.782 28.9703 10.3553ZM6.18161 14.5182C11.2487 11.1698 16.8597 9.21766 26.3704 10.8725C26.901 10.5622 27.1928 10.2778 27.3255 9.64429C24.9511 8.7781 22.3778 8.48075 19.0483 8.53246C16.0505 8.61003 10.6651 9.73479 7.7999 11.4542L8.67537 10.3553C10.6916 9.16595 15.9311 7.5887 19.8575 7.51113C22.6298 7.45942 24.0624 7.61456 27.352 8.5066C27.0735 7.93776 26.3837 7.65334 25.3888 7.20085C22.2053 5.75289 16.2495 5.62361 11.3681 7.78262C11.9915 7.38185 12.5884 6.994 13.3843 6.63201C14.9893 5.8951 17.629 5.17112 20.9186 5.22283C23.5451 5.26161 26.6755 6.19245 28.5856 8.10583C28.904 8.48075 29.0897 8.88152 29.1693 9.20473C30.6814 9.98042 31.5569 10.7044 32.061 11.5577C32.2599 11.9843 32.3528 12.4756 32.2599 13.0056C32.8834 13.3935 33.1885 13.7038 33.4935 14.1175C33.719 14.4665 33.8915 14.8673 33.9313 15.2293C33.9843 15.7076 34.0374 16.2506 33.5466 16.8712C34.0772 17.1297 34.4751 17.8537 34.5415 18.1769C34.7802 19.3275 34.0507 20.4394 33.0691 21.3185C31.9548 22.301 29.5009 23.4646 27.4979 23.9817C23.5185 24.9901 20.0167 25.4168 17.2178 25.9339C18.4647 26.2312 20.1626 26.6449 22.9481 26.6449C28.8774 26.6449 34.117 23.8137 34.117 23.8137C34.117 23.8137 33.9976 24.1886 33.8782 24.5118C30.1111 26.813 24.1154 27.7826 21.5686 27.6663C18.9687 27.5499 16.7801 27.1621 14.6445 26.4898C13.9812 26.6708 13.3445 26.8776 12.7211 27.1491C15.9842 28.6359 18.4382 28.972 21.2237 29.1789C24.0624 29.3857 28.7581 28.7005 32.7375 27.2526C32.5518 27.4336 32.4589 27.718 32.2732 27.899C30.2437 28.972 25.946 30.058 23.7838 30.1356C21.6349 30.2261 19.0218 30.1485 16.7403 29.7089C14.7771 29.334 13.1854 28.7005 11.5007 27.9636C11.1957 28.1834 11.0365 28.4808 10.9834 28.804C17.5096 32.2429 23.6379 32.3204 30.6018 30.1356L29.9651 30.7561C22.2982 33.8848 16.3025 32.6695 11.6732 30.42C11.5273 30.3553 11.3416 30.2778 11.2089 30.1873C11.6334 30.9371 15.1751 33.5486 19.1412 33.8718C21.8737 34.0916 25.2031 33.6262 27.1796 32.8246L26.0255 33.4323C25.0705 33.9106 22.5369 34.9837 18.982 34.7509C14.2598 34.4277 11.5936 32.3204 10.3998 31.2215C9.84266 30.7044 9.59063 30.1097 9.41819 29.3728C8.34375 28.804 7.68052 28.2222 7.1234 27.356C6.79179 26.8389 6.85811 26.27 6.9377 25.7787C6.96423 25.6236 7.00402 25.4814 7.05708 25.3392C6.53976 24.9643 6.02244 24.5635 5.79694 24.1627C5.33267 23.3095 5.61123 22.5855 5.94285 22.0166C5.66429 21.6934 5.399 21.3702 5.27962 21.047C5.16023 20.685 5.1337 20.3101 5.1735 19.8964C5.26635 19.1853 5.63776 18.526 6.12855 17.9572C7.1632 16.7548 8.78149 15.824 11.5671 14.8932C14.2863 13.9882 15.3873 13.846 17.4433 13.3676C19.8442 12.8117 22.7094 12.6307 25.1103 11.7904C18.4116 10.6139 11.4609 11.687 5.79694 15.6171L6.18161 14.5182Z"
                  fill="currentColor"/>
            <path d="M64.6919 16.5225L65.448 21.8619H63.9226L64.6919 16.5225ZM58.6963 28.7397H62.7951L63.2859 25.7145H66.098L66.5888 28.7397H70.6743L67.2255 11.2349H62.1584L58.6963 28.7397Z"
                  fill="currentColor"/>
            <path d="M74.5471 18.009C75.197 18.009 76.4041 17.5824 76.4041 16.2895C76.4041 14.764 75.0113 14.6735 74.6266 14.6735C74.1624 14.6735 73.2869 14.7381 72.4114 15.1648L72.3584 11.3768C73.7246 11.0148 74.7195 10.9243 75.8735 10.9243C79.1632 10.9243 80.6488 13.2514 80.6488 15.5138C80.6488 17.7246 79.3754 19.0691 78.155 19.5862V19.7543C79.3223 20.1292 80.9141 21.2798 80.9141 23.956C80.9141 27.2527 78.6193 29.0756 75.7011 29.0756C74.1359 29.0756 73.1145 28.8429 71.8809 28.1706L71.9472 24.5378C73.0747 25.029 73.844 25.0678 74.6266 25.0678C75.9133 25.0678 76.4439 24.1111 76.4439 23.4001C76.4439 22.4175 75.8205 21.7582 74.4542 21.7582H72.8227V18.009H74.5471Z"
                  fill="currentColor"/>
            <path d="M82.8115 11.2349H93.8079V28.7397H89.7755V15.4365H86.844V28.7397H82.8115V11.2349Z"
                  fill="currentColor"/>
            <path d="M100.148 15.087H101.103C102.018 15.087 102.588 15.6429 102.588 17.0909C102.588 18.9914 101.62 19.1206 101.103 19.1206H100.148V15.087ZM96.1152 28.7393H100.148V22.9603H101.501C105.493 22.9603 106.727 19.3533 106.727 17.0521C106.727 14.7897 105.321 11.2215 101.501 11.2344H96.1152V28.7393Z"
                  fill="currentColor"/>
            <path d="M114.183 24.7188C112.763 24.7188 112.034 23.0511 112.034 19.9612C112.034 16.8714 112.763 15.2036 114.183 15.2036C115.602 15.2036 116.345 16.8714 116.345 19.9612C116.345 23.0511 115.602 24.7188 114.183 24.7188ZM114.183 28.9463C118.958 28.9463 120.576 24.4602 120.576 19.9612C120.576 15.4751 118.958 10.9761 114.183 10.9761C109.407 10.9761 107.789 15.4751 107.789 19.9612C107.802 24.4602 109.407 28.9463 114.183 28.9463Z"
                  fill="currentColor"/>
            <path d="M142.077 25.2362V21.2543H142.661C143.138 21.2543 144.412 21.2801 144.412 23.0771C144.412 24.9259 143.138 25.2362 142.661 25.2362H142.077ZM138.138 28.7397H142.953C143.987 28.7397 148.351 28.3002 148.365 22.9996C148.365 18.5264 144.982 17.7507 142.807 17.7507H142.091V15.4365H147.423V11.2349H138.138V28.7397Z"
                  fill="currentColor"/>
            <path d="M162.864 11.2349H166.817V17.5309H169.629V11.2349H173.582V28.7397H169.629V21.7326H166.817V28.7397H162.864V11.2349Z"
                  fill="currentColor"/>
            <path d="M176.221 11.2349H180.174L180.16 17.5309H181.023L183.277 11.2349H187.575L184.498 19.5348L188 28.7397H183.357L181.102 21.6938H180.16L180.174 28.7397H176.221V11.2349Z"
                  fill="currentColor"/>
            <path d="M50.8965 11.2349H59.1604V15.5917H54.9953V28.7397H50.8965V11.2349Z" fill="currentColor"/>
            <path d="M122.512 11.2349H125.934L128.958 15.359L131.996 11.2349H135.418V28.7397H131.386V18.061L128.958 21.125L126.544 18.061V28.7397H122.512V11.2349Z"
                  fill="currentColor"/>
            <path d="M155.144 16.5479L155.9 21.8873H154.375L155.144 16.5479ZM149.148 28.7651H153.234L153.725 25.7399H156.537L157.028 28.7651H161.113L157.651 11.2603H152.584L149.148 28.7651Z"
                  fill="currentColor"/>
        </g>
        <defs>
            <clipPath id="clip0_5030_1450">
                <rect width="188" height="40" fill="white"/>
            </clipPath>
        </defs>
    </symbol>
    <symbol xmlns="http://www.w3.org/2000/svg" fill="none" viewBox="0 0 16 16" id="icon-location">
        <path fill="currentColor" fill-rule="evenodd"
              d="M13.687 2.313a.5.5 0 0 1 .109.544L9.129 14.191a.5.5 0 0 1-.922.006L6.286 9.714 1.803 7.793a.5.5 0 0 1 .007-.922l11.333-4.667a.5.5 0 0 1 .544.11ZM3.29 7.343l3.573 1.53a.5.5 0 0 1 .262.263l1.531 3.573 3.757-9.123-9.123 3.757Z"
              clip-rule="evenodd"></path>
    </symbol>
    <symbol xmlns="http://www.w3.org/2000/svg" fill="none" viewBox="0 0 14 14" id="icon-whatsapp">
        <g clip-path="url(#icon-whatsapp-clip)">
            <path fill="#1E222E"
                  d="M7.002 0h-.004C3.138 0 0 3.14 0 7c0 1.531.493 2.95 1.333 4.103l-.873 2.6 2.69-.86A6.94 6.94 0 0 0 7.003 14C10.862 14 14 10.86 14 7s-3.139-7-6.998-7Z"></path>
            <path fill="#E3E5EB"
                  d="M11.075 9.885c-.169.477-.84.872-1.374.988-.366.078-.843.14-2.452-.527-2.057-.852-3.381-2.943-3.485-3.078-.099-.136-.83-1.107-.83-2.112 0-1.004.51-1.493.715-1.703.169-.173.448-.251.716-.251.086 0 .164.004.234.008.206.008.309.02.445.345.168.407.58 1.412.629 1.515.05.103.1.243.03.379-.066.14-.124.202-.227.32-.103.12-.201.21-.305.339-.094.11-.2.23-.082.435.12.202.53.873 1.136 1.412.781.695 1.415.918 1.641 1.012.17.07.37.053.494-.078.156-.169.35-.449.547-.724.14-.198.316-.223.502-.153.189.066 1.19.56 1.395.663.205.103.341.152.39.239.05.086.05.493-.119.97Z"></path>
        </g>
        <defs>
            <clipPath id="icon-whatsapp-clip">
                <path fill="#fff" d="M0 0h14v14H0z"></path>
            </clipPath>
        </defs>
    </symbol>
    <symbol xmlns="http://www.w3.org/2000/svg" fill="none" viewBox="0 0 16 16" id="icon-yt">
        <path fill-rule="evenodd" clip-rule="evenodd"
              d="M6.63601 10.013V6.04801L10.121 8.03001L6.63601 10.013ZM14.388 4.80001C14.3125 4.51624 14.1638 4.25729 13.9567 4.04913C13.7496 3.84098 13.4914 3.69092 13.208 3.61401C12.169 3.33301 8.00001 3.33301 8.00001 3.33301C8.00001 3.33301 3.83001 3.33301 2.79001 3.61301C2.50673 3.69025 2.24872 3.84056 2.04181 4.04888C1.83489 4.25719 1.68633 4.51622 1.61101 4.80001C1.33301 5.84701 1.33301 8.03001 1.33301 8.03001C1.33301 8.03001 1.33301 10.214 1.61101 11.26C1.68633 11.5438 1.83489 11.8028 2.04181 12.0111C2.24872 12.2195 2.50673 12.3698 2.79001 12.447C3.83001 12.727 8.00001 12.727 8.00001 12.727C8.00001 12.727 12.169 12.727 13.209 12.447C13.4923 12.3699 13.7504 12.2196 13.9573 12.0112C14.1642 11.8029 14.3128 11.5438 14.388 11.26C14.666 10.214 14.666 8.03001 14.666 8.03001C14.666 8.03001 14.666 5.84701 14.388 4.80001Z"
              fill="currentColor"/>
    </symbol>
    <symbol xmlns="http://www.w3.org/2000/svg" fill="none" viewBox="0 0 16 16" id="icon-ok">
        <path d="M8.82588 6.12971C8.82607 6.29336 8.77771 6.45339 8.68692 6.58954C8.59612 6.7257 8.46697 6.83185 8.31582 6.89457C8.16466 6.95729 7.9983 6.97375 7.83778 6.94187C7.67727 6.90999 7.52982 6.83121 7.4141 6.71549C7.29838 6.59977 7.2196 6.45232 7.18772 6.29181C7.15584 6.13129 7.1723 5.96493 7.23502 5.81377C7.29774 5.66262 7.40389 5.53347 7.54004 5.44267C7.67619 5.35187 7.83622 5.30351 7.99987 5.30371C8.45487 5.30371 8.82588 5.67471 8.82588 6.12971Z"
              fill="currentColor"/>
        <path fill-rule="evenodd" clip-rule="evenodd"
              d="M1.33301 8.00048C1.33301 7.12503 1.50544 6.25814 1.84046 5.44933C2.17549 4.64051 2.66654 3.9056 3.28558 3.28656C3.90462 2.66752 4.63953 2.17646 5.44835 1.84144C6.25717 1.50642 7.12405 1.33398 7.99951 1.33398C8.87497 1.33398 9.74185 1.50642 10.5507 1.84144C11.3595 2.17646 12.0944 2.66752 12.7134 3.28656C13.3325 3.9056 13.8235 4.64051 14.1586 5.44933C14.4936 6.25814 14.666 7.12503 14.666 8.00048C14.666 9.76855 13.9636 11.4642 12.7134 12.7144C11.4632 13.9646 9.76757 14.667 7.99951 14.667C6.23144 14.667 4.53579 13.9646 3.28558 12.7144C2.03537 11.4642 1.33301 9.76855 1.33301 8.00048ZM9.92301 11.6955C9.9774 11.6412 10.0206 11.5768 10.05 11.5058C10.0794 11.4349 10.0946 11.3588 10.0946 11.282C10.0946 11.2052 10.0794 11.1291 10.05 11.0581C10.0206 10.9872 9.9774 10.9227 9.92301 10.8685L8.80701 9.75248C9.21769 9.65912 9.60957 9.49682 9.96601 9.27248C10.0936 9.1882 10.1831 9.05731 10.2154 8.90785C10.2476 8.75838 10.2201 8.60222 10.1387 8.47281C10.0572 8.34339 9.92835 8.25101 9.77964 8.21543C9.63093 8.17986 9.4742 8.20393 9.34301 8.28248C8.94017 8.53439 8.47462 8.66796 7.99951 8.66796C7.52439 8.66796 7.05885 8.53439 6.65601 8.28248C6.591 8.24158 6.51858 8.21388 6.44287 8.20096C6.36716 8.18804 6.28964 8.19016 6.21475 8.2072C6.13986 8.22424 6.06906 8.25587 6.00639 8.30027C5.94372 8.34467 5.89042 8.40098 5.84951 8.46598C5.8086 8.53099 5.7809 8.60341 5.76798 8.67912C5.75506 8.75483 5.75719 8.83235 5.77423 8.90724C5.79127 8.98213 5.82289 9.05293 5.86729 9.1156C5.91169 9.17827 5.968 9.23158 6.03301 9.27248C6.39401 9.49949 6.78601 9.66048 7.19201 9.75248L6.07601 10.8685C6.02171 10.9229 5.97864 10.9874 5.94928 11.0584C5.91992 11.1294 5.90483 11.2055 5.90488 11.2823C5.90492 11.3592 5.9201 11.4353 5.94955 11.5062C5.979 11.5772 6.02214 11.6417 6.07651 11.696C6.13088 11.7503 6.19541 11.7933 6.26641 11.8227C6.33742 11.8521 6.41352 11.8672 6.49036 11.8671C6.5672 11.8671 6.64328 11.8519 6.71425 11.8224C6.78523 11.793 6.84971 11.7499 6.90401 11.6955L7.99901 10.5985L9.09701 11.6955C9.15117 11.7498 9.21554 11.793 9.28641 11.8224C9.35728 11.8518 9.43327 11.867 9.51001 11.867C9.58675 11.867 9.66273 11.8518 9.73361 11.8224C9.80448 11.793 9.86884 11.7498 9.92301 11.6955ZM8.00001 4.13548C9.10001 4.13548 9.99501 5.02948 9.99501 6.13048C9.99501 7.23048 9.10001 8.12548 8.00001 8.12548C6.90001 8.12548 6.00401 7.23048 6.00401 6.13048C6.00401 5.03048 6.89901 4.13448 8.00001 4.13448V4.13548Z"
              fill="currentColor"/>
    </symbol>
    <symbol xmlns="http://www.w3.org/2000/svg" fill="none" viewBox="0 0 16 16" id="icon-vk">
        <path fill-rule="evenodd" clip-rule="evenodd"
              d="M11.9336 10.7316H11.0036C10.6506 10.7316 10.5426 10.4436 9.91061 9.81161C9.35861 9.27761 9.11461 9.20561 8.97961 9.20561C8.78961 9.20561 8.73561 9.25061 8.73561 9.52261V10.3626C8.73561 10.5876 8.66361 10.7226 8.06661 10.7226C7.08261 10.7226 5.98961 10.1266 5.22161 9.01661C4.06561 7.38961 3.74961 6.16161 3.74961 5.91661C3.74961 5.78261 3.79461 5.65561 4.06561 5.65561H5.00561C5.23961 5.65561 5.33061 5.75561 5.42061 6.01661C5.88061 7.34461 6.64861 8.50961 6.96461 8.50961C7.08261 8.50961 7.13661 8.45661 7.13661 8.15761V6.78461C7.10061 6.15261 6.76661 6.09761 6.76661 5.87261C6.76661 5.76361 6.85661 5.65561 7.00061 5.65561H8.46461C8.66461 5.65561 8.73561 5.76361 8.73561 5.99861V7.85061C8.73561 8.04961 8.81761 8.12161 8.88061 8.12161C8.99761 8.12161 9.09661 8.04961 9.31361 7.83261C9.98261 7.08261 10.4616 5.92661 10.4616 5.92661C10.493 5.84576 10.5492 5.77693 10.6221 5.73004C10.6951 5.68314 10.781 5.66058 10.8676 5.66561H11.7976C12.0776 5.66561 12.1416 5.80861 12.0776 6.00861C11.9606 6.55061 10.8216 8.15761 10.8316 8.15761C10.7316 8.32061 10.6956 8.39261 10.8316 8.57361C10.9306 8.70961 11.2556 8.98861 11.4716 9.24161C11.8696 9.69361 12.1766 10.0726 12.2586 10.3346C12.3306 10.5966 12.2036 10.7316 11.9336 10.7316ZM9.96361 1.59961H6.03561C2.44961 1.59961 1.59961 2.44961 1.59961 6.03561V9.96561C1.59961 13.5506 2.44861 14.3996 6.03461 14.3996H9.96461C13.5496 14.3996 14.3996 13.5506 14.3996 9.96461V6.03461C14.3996 2.44861 13.5496 1.59961 9.96461 1.59961H9.96361Z"
              fill="currentColor"/>
    </symbol>
    <symbol xmlns="http://www.w3.org/2000/svg" fill="none" viewBox="0 0 15 12" id="icon-telegram">
        <mask id="icon-telegram-mask" width="15" height="12" x="0" y="0" maskUnits="userSpaceOnUse">
            <path fill="#fff" fill-rule="evenodd" d="M.5.167h14v11.666H.5V.167Z" clip-rule="evenodd"></path>
        </mask>
        <g mask="url(#icon-telegram-mask)">
            <path fill="#1E222E" fill-rule="evenodd"
                  d="M14.5 1.104c-.073.326-.15.652-.22.979l-1.355 6.344c-.195.91-.388 1.822-.587 2.732a1.363 1.363 0 0 1-.129.342c-.152.287-.402.394-.71.298a1.406 1.406 0 0 1-.402-.195c-1.006-.729-2.007-1.465-3.01-2.2l-.116-.082c-.033.029-.065.053-.094.08l-1.552 1.481a.714.714 0 0 1-.559.223l.056-.836.125-1.73c.007-.09.03-.184.019-.272-.046-.332.141-.525.37-.729 1.856-1.654 3.703-3.319 5.553-4.98.027-.025.062-.046.078-.076.03-.056.047-.118.07-.177-.063-.017-.132-.06-.187-.047a1.153 1.153 0 0 0-.323.136 6370.27 6370.27 0 0 0-7.229 4.524c-.067.042-.126.065-.212.038-1.022-.323-2.047-.638-3.069-.961a1.302 1.302 0 0 1-.352-.172c-.199-.14-.223-.344-.045-.51.13-.12.288-.228.453-.294.86-.342 1.728-.67 2.593-1C6.953 2.76 10.24 1.5 13.528.243c.104-.04.218-.067.33-.075.296-.023.515.137.605.425.011.034.025.067.037.1v.41Z"
                  clip-rule="evenodd"></path>
        </g>
    </symbol>
    <symbol xmlns="http://www.w3.org/2000/svg" fill="none" viewBox="0 0 20 20" id="icon-flag">
        <g clip-path="url(#icon-flag-clip)">
            <path fill="#00247D"
                  d="M0 5.033v2.19h3.127L0 5.032Zm2.591 12.19h4.631V13.98l-4.63 3.242Zm10.187-3.243v3.242h4.63l-4.63-3.242ZM0 12.778v2.19l3.128-2.19H0Zm17.41-10h-4.632V6.02l4.631-3.243ZM20 14.968v-2.19h-3.128L20 14.968Zm0-7.746v-2.19l-3.127 2.19H20ZM7.222 2.778h-4.63l4.63 3.243V2.778Z"></path>
            <path fill="#CF1B2B"
                  d="m13.967 12.778 5.395 3.778a2.21 2.21 0 0 0 .55-.972l-4.008-2.806h-1.937Zm-6.745 0H6.033L.638 16.555c.29.295.66.505 1.077.603l5.507-3.856v-.524Zm5.556-5.556h1.19l5.394-3.778a2.216 2.216 0 0 0-1.076-.602l-5.508 3.856v.524Zm-6.745 0L.638 3.444a2.219 2.219 0 0 0-.55.972l4.008 2.806h1.937Z"></path>
            <path fill="#EEE"
                  d="M20 11.667h-8.333v5.555h1.11V13.98l4.631 3.242h.37a2.217 2.217 0 0 0 1.584-.666l-5.395-3.778h1.937l4.008 2.806c.052-.187.088-.38.088-.584v-.032l-3.128-2.19H20v-1.111Zm-20 0v1.11h3.128L0 14.968V15c0 .606.244 1.154.638 1.556l5.395-3.778h1.19v.524l-5.509 3.856c.164.039.333.064.508.064h.37l4.63-3.243v3.243h1.111v-5.555H0ZM20 5c0-.582-.229-1.141-.638-1.555l-5.395 3.777h-1.19v-.524l5.51-3.856a2.222 2.222 0 0 0-.51-.064h-.368L12.778 6.02V2.778h-1.111v5.555H20v-1.11h-3.127L20 5.032V5ZM7.222 2.778V6.02l-4.63-3.243h-.37a2.214 2.214 0 0 0-1.584.667l5.395 3.777H4.096L.087 4.416C.032 4.606.003 4.802 0 5v.033l3.127 2.19H0v1.11h8.333V2.778h-1.11Z"></path>
            <path fill="#CF1B2B"
                  d="M11.667 8.333V2.778H8.333v5.555H0v3.334h8.333v5.555h3.334v-5.555H20V8.333h-8.333Z"></path>
        </g>
        <defs>
            <clipPath id="icon-flag-clip">
                <path fill="#fff" d="M0 0h20v20H0z"></path>
            </clipPath>
        </defs>
    </symbol>
    <symbol xmlns="http://www.w3.org/2000/svg" viewBox="0 0 24 24" fill="none" id="icon-burger">
        <path fill="currentColor" fill-rule="evenodd" clip-rule="evenodd"
              d="M2 5.75C2 5.55109 2.07902 5.36032 2.21967 5.21967C2.36032 5.07902 2.55109 5 2.75 5H21.25C21.4489 5 21.6397 5.07902 21.7803 5.21967C21.921 5.36032 22 5.55109 22 5.75C22 5.94891 21.921 6.13968 21.7803 6.28033C21.6397 6.42098 21.4489 6.5 21.25 6.5H2.75C2.55109 6.5 2.36032 6.42098 2.21967 6.28033C2.07902 6.13968 2 5.94891 2 5.75ZM2 11.75C2 11.5511 2.07902 11.3603 2.21967 11.2197C2.36032 11.079 2.55109 11 2.75 11H21.25C21.4489 11 21.6397 11.079 21.7803 11.2197C21.921 11.3603 22 11.5511 22 11.75C22 11.9489 21.921 12.1397 21.7803 12.2803C21.6397 12.421 21.4489 12.5 21.25 12.5H2.75C2.55109 12.5 2.36032 12.421 2.21967 12.2803C2.07902 12.1397 2 11.9489 2 11.75ZM2 17.75C2 17.5511 2.07902 17.3603 2.21967 17.2197C2.36032 17.079 2.55109 17 2.75 17H21.25C21.4489 17 21.6397 17.079 21.7803 17.2197C21.921 17.3603 22 17.5511 22 17.75C22 17.9489 21.921 18.1397 21.7803 18.2803C21.6397 18.421 21.4489 18.5 21.25 18.5H2.75C2.55109 18.5 2.36032 18.421 2.21967 18.2803C2.07902 18.1397 2 17.9489 2 17.75Z"/>
    </symbol>
    <symbol xmlns="http://www.w3.org/2000/svg" viewBox="0 0 24 24" fill="none" id="icon-decor">
        <circle cx="2" cy="2" r="2" fill="#B7B8BC"/>
        <circle cx="2" cy="12" r="2" fill="#B7B8BC"/>
        <circle cx="2" cy="22" r="2" fill="#B7B8BC"/>
        <circle cx="12" cy="2" r="2" fill="#B7B8BC"/>
        <circle cx="12" cy="12" r="2" fill="#1E222E"/>
        <circle cx="12" cy="22" r="2" fill="#B7B8BC"/>
        <circle cx="22" cy="2" r="2" fill="#B7B8BC"/>
        <circle cx="22" cy="12" r="2" fill="#B7B8BC"/>
        <circle cx="22" cy="22" r="2" fill="#B7B8BC"/>
    </symbol>
    <symbol xmlns="http://www.w3.org/2000/svg" viewBox="0 0 24 24" fill="none" id="icon-search">
      <path fill-rule="evenodd" clip-rule="evenodd" d="M14.5547 15.9692C13.0972 17.0687 11.2768 17.5744 9.46103 17.3843C7.64523 17.1941 5.96915 16.3223 4.77101 14.9447C3.57286 13.5672 2.94186 11.7864 3.00534 9.96175C3.06882 8.13713 3.82205 6.40451 5.11303 5.11352C6.40402 3.82254 8.13664 3.06931 9.96126 3.00583C11.7859 2.94235 13.5667 3.57335 14.9442 4.77149C16.3218 5.96964 17.1936 7.64572 17.3838 9.46152C17.5739 11.2773 17.0682 13.0976 15.9687 14.5552L20.7047 19.2912C20.8923 19.4787 20.9978 19.733 20.9979 19.9983C20.998 20.2636 20.8927 20.518 20.7052 20.7057C20.5177 20.8933 20.2633 20.9988 19.998 20.9989C19.7328 20.999 19.4783 20.8937 19.2907 20.7062L14.5547 15.9692ZM15.9227 10.2112C15.9227 10.9612 15.7749 11.7039 15.4879 12.3969C15.2009 13.0898 14.7802 13.7194 14.2498 14.2498C13.7195 14.7802 13.0898 15.2009 12.3969 15.4879C11.7039 15.7749 10.9612 15.9227 10.2112 15.9227C9.46113 15.9227 8.71843 15.7749 8.02548 15.4879C7.33253 15.2009 6.7029 14.7802 6.17253 14.2498C5.64217 13.7194 5.22147 13.0898 4.93444 12.3969C4.64741 11.7039 4.49967 10.9612 4.49967 10.2112C4.49967 8.69638 5.10142 7.24364 6.17253 6.17252C7.24365 5.10141 8.69639 4.49966 10.2112 4.49966C11.726 4.49966 13.1787 5.10141 14.2498 6.17252C15.3209 7.24364 15.9227 8.69638 15.9227 10.2112Z" fill="currentColor"/>
    </symbol>
    <symbol xmlns="http://www.w3.org/2000/svg" viewBox="0 0 66 20" fill="none" id="icon-yandex">
      <g clip-path="url(#clip0_2_3081)">
      <path d="M62.9246 17.4151C64.2194 17.4151 65.1366 17.1698 65.82 16.6415V14.2453C65.1186 14.7547 64.2734 15.0755 63.0864 15.0755C61.0903 15.0755 60.263 13.4528 60.263 10.8868C60.263 8.18868 61.2701 6.81132 63.1044 6.81132C64.1834 6.81132 65.2445 7.20754 65.802 7.5849V5.09434C65.2085 4.75471 64.1834 4.50943 62.7807 4.50943C59.202 4.50943 57.3497 7.20754 57.3497 10.9811C57.3676 15.1132 59.184 17.4151 62.9246 17.4151ZM45.4265 16.3208V13.9245C44.5633 14.5472 43.0886 15.0943 41.7398 15.0943C39.6897 15.0943 38.9164 14.0755 38.7905 12H45.5524V10.4528C45.5524 6.13207 43.736 4.50943 40.9486 4.50943C37.5317 4.50943 35.9131 7.24528 35.9131 11C35.9131 15.3208 37.9453 17.4151 41.5061 17.4151C43.2864 17.4151 44.5992 16.9057 45.4265 16.3208ZM19.7638 4.73585V9.64151H16.0232V4.73585H13.2178V17.1698H16.0232V11.9811H19.7638V17.1698H22.5693V4.73585H19.7638ZM35.2118 14.8302H33.9709V4.73585H25.8063V5.79245C25.8063 8.83018 25.6265 12.7547 24.6374 14.8302H23.7382V20H26.3279V17.1698H32.6042V20H35.1938V14.8302H35.2118ZM54.3644 17.1698H57.5475L53.0516 10.4717L57.008 4.73585H54.1845L50.2281 10.4717V4.73585H47.4227V17.1698H50.2281V11.0566L54.3644 17.1698ZM40.8766 6.81132C42.2614 6.81132 42.693 8.01886 42.693 9.5849V9.83018H38.7905C38.8625 7.84905 39.5458 6.81132 40.8766 6.81132ZM31.1655 14.8302H27.2091C27.9824 12.9623 28.1982 9.56603 28.1982 7.41509V7.03773H31.1655V14.8302Z" fill="black"/>
      <path d="M10.8801 17.1698H8.02071V2.32075H6.74387C4.40599 2.32075 3.18311 3.54717 3.18311 5.37736C3.18311 7.45283 4.02834 8.41509 5.77275 9.64151L7.21144 10.6604L3.0752 17.1698H0L3.72262 11.3585C1.58256 9.75472 0.377657 8.18868 0.377657 5.54717C0.377657 2.24528 2.57166 0 6.72589 0H10.8621V17.1698H10.8801Z" fill="#FC3F1D"/>
      </g>
      <defs>
      <clipPath id="clip0_2_3081">
      <rect width="66" height="20" fill="white"/>
      </clipPath>
      </defs>
    </symbol>
    <symbol xmlns="http://www.w3.org/2000/svg" viewBox="0 0 24 24" fill="none" id="icon-finger_up">
      <path fill-rule="evenodd" clip-rule="evenodd" d="M18.7179 5.28306C18.8584 5.42369 18.9373 5.61431 18.9373 5.81306C18.9373 6.01181 18.8584 6.20244 18.7179 6.34306L13.0599 12.0001L18.7169 17.6571C18.8535 17.7986 18.929 17.9881 18.9272 18.1847C18.9254 18.3814 18.8464 18.5694 18.7073 18.7084C18.5682 18.8474 18.38 18.9262 18.1834 18.9278C17.9867 18.9294 17.7973 18.8537 17.6559 18.7171L11.9999 13.0621L6.34293 18.7191C6.27371 18.7907 6.19092 18.8478 6.0994 18.887C6.00788 18.9263 5.90946 18.9469 5.80987 18.9477C5.71029 18.9486 5.61154 18.9295 5.51938 18.8918C5.42723 18.854 5.34352 18.7983 5.27313 18.7278C5.20274 18.6574 5.14709 18.5736 5.10943 18.4814C5.07176 18.3893 5.05283 18.2905 5.05374 18.1909C5.05465 18.0913 5.07539 17.9929 5.11474 17.9014C5.15409 17.8099 5.21126 17.7272 5.28293 17.6581L10.9379 12.0001L5.28193 6.34306C5.14537 6.20154 5.06987 6.01206 5.07167 5.81541C5.07347 5.61876 5.15243 5.43069 5.29156 5.2917C5.43068 5.15271 5.61883 5.07392 5.81548 5.0723C6.01212 5.07069 6.20154 5.14637 6.34293 5.28306L11.9999 10.9391L17.6569 5.28306C17.7976 5.14261 17.9882 5.06372 18.1869 5.06372C18.3857 5.06372 18.5763 5.14261 18.7169 5.28306H18.7179Z" fill="#A3A7BC"/>
    </symbol>
    <symbol xmlns="http://www.w3.org/2000/svg" viewBox="0 0 48 48" fill="none" id="icon-gpb-app">
      <g clip-path="url(#clip0_4918_1633)">
      <path d="M37.7144 0.428711H10.2859C4.8419 0.428711 0.428711 4.8419 0.428711 10.2859V37.7144C0.428711 43.1584 4.8419 47.5716 10.2859 47.5716H37.7144C43.1584 47.5716 47.5716 43.1584 47.5716 37.7144V10.2859C47.5716 4.8419 43.1584 0.428711 37.7144 0.428711Z" fill="white"/>
      <mask id="mask0_4918_1633" style="mask-type:alpha" maskUnits="userSpaceOnUse" x="3" y="10" width="42" height="28">
      <path d="M6.66014 29.6554C10.7521 20.5011 12.799 15.9239 16.663 13.2539C16.9287 13.0714 17.1979 12.8965 17.4721 12.7294C21.4836 10.2856 26.485 10.2856 36.4887 10.2856H43.3279C44.0016 10.2856 44.3393 10.2856 44.4919 10.4982C44.502 10.512 44.5114 10.5263 44.5201 10.5411C44.6521 10.7682 44.515 11.0776 44.2424 11.6956L41.1404 18.7225C37.2884 27.4482 35.3633 31.8111 31.705 34.3851C31.4539 34.5616 31.1993 34.7305 30.9387 34.8925C27.1407 37.2531 22.3827 37.3139 12.8667 37.4356L4.69128 37.5394C4.00557 37.5479 3.66357 37.5531 3.50757 37.3388C3.49744 37.325 3.488 37.3107 3.47928 37.2959C3.34471 37.0662 3.48528 36.7534 3.76557 36.1259L6.65843 29.6554H6.66014Z" fill="black"/>
      </mask>
      <g mask="url(#mask0_4918_1633)">
      <path d="M6.66014 29.6554C10.7521 20.5011 12.799 15.9239 16.663 13.2539C16.9287 13.0714 17.1979 12.8965 17.4721 12.7294C21.4836 10.2856 26.485 10.2856 36.4887 10.2856H43.3279C44.0016 10.2856 44.3393 10.2856 44.4919 10.4982C44.502 10.512 44.5114 10.5263 44.5201 10.5411C44.6521 10.7682 44.515 11.0776 44.2424 11.6956L41.1404 18.7225C37.2884 27.4482 35.3633 31.8111 31.705 34.3851C31.4539 34.5616 31.1993 34.7305 30.9387 34.8925C27.1407 37.2531 22.3827 37.3139 12.8667 37.4356L4.69128 37.5394C4.00557 37.5479 3.66357 37.5531 3.50757 37.3388C3.49744 37.325 3.488 37.3107 3.47928 37.2959C3.34471 37.0662 3.48528 36.7534 3.76557 36.1259L6.65843 29.6554H6.66014Z" fill="url(#paint0_linear_4918_1633)"/>
      <path fill-rule="evenodd" clip-rule="evenodd" d="M29.5757 19.9715H24.2965C21.7148 19.9767 20.4668 19.9801 19.3183 20.1515C14.6185 20.8484 10.7074 23.3855 8.15398 27.3935C7.52998 28.3724 6.92398 29.7215 5.6734 32.5098L3.75683 36.7827C3.69083 36.9301 3.64455 37.0338 3.61369 37.1127C3.69769 37.1153 3.81083 37.1144 3.97369 37.1127L9.97369 37.0355C11.9065 37.0133 12.8434 37.0013 13.5248 36.9344C19.1665 36.3798 23.2688 33.6747 26.0014 28.7084C26.3314 28.1084 26.79 27.0721 27.7345 24.9404L29.79 20.3007C29.8543 20.155 29.8988 20.053 29.928 19.9758C29.8106 19.9718 29.6931 19.9704 29.5757 19.9715ZM7.79226 27.163C7.14769 28.1753 6.52626 29.5613 5.28255 32.3341L3.36598 36.607C3.17998 37.021 3.08655 37.2284 3.17569 37.3793C3.18146 37.3893 3.18775 37.399 3.19455 37.4084C3.2974 37.5498 3.52455 37.5464 3.97883 37.5413L9.97883 37.4641C11.9014 37.4418 12.8623 37.4298 13.5668 37.3613C19.3491 36.793 23.5765 34.0055 26.3768 28.915C26.718 28.2944 27.1877 27.235 28.1263 25.1144L30.1817 20.4738C30.3617 20.0658 30.4525 19.8618 30.3651 19.711C30.3595 19.7016 30.3535 19.6924 30.3471 19.6835C30.2443 19.543 30.0214 19.543 29.5757 19.543H24.2957C21.7268 19.5481 20.4428 19.5507 19.2557 19.7273C14.4325 20.443 10.4125 23.0504 7.79226 27.163Z" fill="white" fill-opacity="0.1"/>
      <path opacity="0.3" d="M8.14035 30.7911C9.38407 28.0183 10.0064 26.6323 10.6509 25.62C13.2704 21.5074 17.2904 18.9 22.1135 18.1843C23.3006 18.0077 24.5855 18.0051 27.1535 18.0009L27.9026 18H32.4335C32.8801 18 33.1038 18 33.2049 18.1406C33.2118 18.1491 33.2178 18.1594 33.2238 18.1689C33.3112 18.3189 33.2204 18.5229 33.0395 18.9317L30.9858 23.5714C30.0464 25.6911 29.5775 26.7514 29.2364 27.372C26.4361 32.4626 22.2078 35.2491 16.4264 35.8183C15.7218 35.8869 14.7601 35.8989 12.8384 35.9211L12.2546 35.9297L6.8375 35.9983C6.38407 36.0034 6.15692 36.0069 6.05321 35.8654C6.04673 35.856 6.04073 35.8463 6.03521 35.8363C5.94607 35.6854 6.03864 35.4789 6.22464 35.0649L8.14121 30.7911H8.14035Z" fill="url(#paint1_linear_4918_1633)"/>
      <path opacity="0.5" d="M9.42649 29.9337C10.6702 27.1609 11.2925 25.7749 11.9371 24.7626C14.5573 20.65 18.5765 18.0426 23.3996 17.3269C24.5868 17.1503 25.8716 17.1477 28.4396 17.1434L29.1888 17.1426H33.7196C34.1662 17.1426 34.3899 17.1426 34.4911 17.2831C34.4979 17.2917 34.5039 17.302 34.5099 17.3114C34.5973 17.4614 34.5065 17.6654 34.3256 18.0743L32.2719 22.714C31.3325 24.8337 30.8636 25.894 30.5225 26.5146C27.7222 31.6052 23.4939 34.3917 17.7125 34.9609C17.0079 35.0294 16.0462 35.0414 14.1245 35.0637L13.5408 35.0723L8.12363 35.1409C7.6702 35.146 7.44306 35.1494 7.33934 35.008C7.33287 34.9986 7.32686 34.9889 7.32134 34.9789C7.2322 34.828 7.32477 34.6214 7.51077 34.2074L9.42734 29.9337H9.42649Z" fill="url(#paint2_linear_4918_1633)"/>
      <path d="M10.2839 29.4196C11.5276 26.6467 12.1499 25.2607 12.7945 24.2484C15.4148 20.1358 19.4339 17.5284 24.257 16.8127C25.4442 16.6361 26.729 16.6336 29.2971 16.6293L30.0462 16.6284H34.577C35.0236 16.6284 35.2473 16.6284 35.3485 16.769C35.3553 16.7776 35.3613 16.7878 35.3673 16.7973C35.4548 16.9473 35.3639 17.1513 35.1831 17.5601L33.1293 22.1998C32.1899 24.3196 31.7211 25.3798 31.3799 26.0004C28.5796 31.091 24.3513 33.8776 18.5699 34.4467C17.8653 34.5153 16.9036 34.5273 14.9819 34.5496L14.3982 34.5581L8.98105 34.6267C8.52762 34.6318 8.30048 34.6353 8.19676 34.4938C8.19029 34.4844 8.18428 34.4747 8.17876 34.4647C8.08962 34.3138 8.18219 34.1064 8.36819 33.6933L10.2848 29.4196H10.2839Z" fill="url(#paint3_linear_4918_1633)"/>
      <path d="M21.3603 22.3798C16.5748 22.3798 13.3117 24.1969 11.9745 25.1406L9.47168 23.632L15.9123 17.8892L36.1948 16.9326L33.5805 22.3798H21.3603Z" fill="url(#paint4_radial_4918_1633)"/>
      <path fill-rule="evenodd" clip-rule="evenodd" d="M7.7374 27.2485L7.7914 27.1628C10.4117 23.0502 14.4317 20.4428 19.2548 19.7271C20.442 19.5505 21.726 19.5479 24.2948 19.5436L25.044 19.5428H29.5748C30.0205 19.5428 30.2434 19.5428 30.3463 19.6834L30.3643 19.7116C30.4517 19.8616 30.3617 20.0656 30.1808 20.4736L28.1254 25.1142C27.1868 27.2339 26.7171 28.2942 26.376 28.9148C23.5757 34.0054 19.3474 36.7919 13.566 37.3611C12.8614 37.4296 11.9005 37.4416 9.97797 37.4639L9.39426 37.4725L4.11426 37.5394C4.27197 37.5454 4.46311 37.5428 4.69283 37.5394L12.8674 37.4356C22.3834 37.3139 27.1414 37.2531 30.9394 34.8925C31.2 34.7305 31.4554 34.5616 31.7057 34.3851C35.3631 31.8111 37.2891 27.4482 41.1411 18.7225L44.244 11.6956C44.5165 11.0776 44.6528 10.7682 44.5208 10.5411C44.5121 10.5263 44.5027 10.512 44.4925 10.4982C44.34 10.2856 44.0023 10.2856 43.3285 10.2856H36.4885C26.484 10.2856 21.4825 10.2856 17.4711 12.7285C17.1968 12.8965 16.9268 13.0714 16.6628 13.2539C13.1528 15.6796 11.1428 19.6774 7.73654 27.2485H7.7374Z" fill="url(#paint5_linear_4918_1633)"/>
      <path fill-rule="evenodd" clip-rule="evenodd" d="M7.7374 27.2485L7.7914 27.1628C10.4117 23.0502 14.4317 20.4428 19.2548 19.7271C20.442 19.5505 21.726 19.5479 24.2948 19.5436L25.044 19.5428H29.5748C30.0205 19.5428 30.2434 19.5428 30.3463 19.6834L30.3643 19.7116C30.4517 19.8616 30.3617 20.0656 30.1808 20.4736L28.1254 25.1142C27.1868 27.2339 26.7171 28.2942 26.376 28.9148C23.5757 34.0054 19.3474 36.7919 13.566 37.3611C12.8614 37.4296 11.9005 37.4416 9.97797 37.4639L9.39426 37.4725L4.11426 37.5394C4.27197 37.5454 4.46311 37.5428 4.69283 37.5394L12.8674 37.4356C22.3834 37.3139 27.1414 37.2531 30.9394 34.8925C31.2 34.7305 31.4554 34.5616 31.7057 34.3851C35.3631 31.8111 37.2891 27.4482 41.1411 18.7225L44.244 11.6956C44.5165 11.0776 44.6528 10.7682 44.5208 10.5411C44.5121 10.5263 44.5027 10.512 44.4925 10.4982C44.34 10.2856 44.0023 10.2856 43.3285 10.2856H36.4885C26.484 10.2856 21.4825 10.2856 17.4711 12.7285C17.1968 12.8965 16.9268 13.0714 16.6628 13.2539C13.1528 15.6796 11.1428 19.6774 7.73654 27.2485H7.7374Z" fill="url(#paint6_radial_4918_1633)"/>
      <path fill-rule="evenodd" clip-rule="evenodd" d="M7.7374 27.2485L7.7914 27.1628C10.4117 23.0502 14.4317 20.4428 19.2548 19.7271C20.442 19.5505 21.726 19.5479 24.2948 19.5436L25.044 19.5428H29.5748C30.0205 19.5428 30.2434 19.5428 30.3463 19.6834L30.3643 19.7116C30.4517 19.8616 30.3617 20.0656 30.1808 20.4736L28.1254 25.1142C27.1868 27.2339 26.7171 28.2942 26.376 28.9148C23.5757 34.0054 19.3474 36.7919 13.566 37.3611C12.8614 37.4296 11.9005 37.4416 9.97797 37.4639L9.39426 37.4725L4.11426 37.5394C4.27197 37.5454 4.46311 37.5428 4.69283 37.5394L12.8674 37.4356C22.3834 37.3139 27.1414 37.2531 30.9394 34.8925C31.2 34.7305 31.4554 34.5616 31.7057 34.3851C35.3631 31.8111 37.2891 27.4482 41.1411 18.7225L44.244 11.6956C44.5165 11.0776 44.6528 10.7682 44.5208 10.5411C44.5121 10.5263 44.5027 10.512 44.4925 10.4982C44.34 10.2856 44.0023 10.2856 43.3285 10.2856H36.4885C26.484 10.2856 21.4825 10.2856 17.4711 12.7285C17.1968 12.8965 16.9268 13.0714 16.6628 13.2539C13.1528 15.6796 11.1428 19.6774 7.73654 27.2485H7.7374Z" fill="url(#paint7_linear_4918_1633)"/>
      <path fill-rule="evenodd" clip-rule="evenodd" d="M43.3294 11.1428H36.4894C31.47 11.1428 27.7689 11.1436 24.8203 11.4436C21.8897 11.7419 19.7752 12.3299 17.9177 13.4614C17.6573 13.6197 17.4015 13.7855 17.1506 13.9585C15.3609 15.1962 13.9603 16.8908 12.4903 19.4502C11.0109 22.0268 9.49544 25.4125 7.44173 30.0051L4.54887 36.4756L4.45544 36.6856L4.68173 36.6831L12.8563 36.5785C17.6314 36.5176 21.15 36.4714 23.9503 36.1516C26.7326 35.8345 28.734 35.2542 30.4869 34.1639C30.7337 34.0114 30.9754 33.8511 31.212 33.6839C32.9006 32.4959 34.2206 30.8785 35.6049 28.4382C36.9994 25.9808 38.4249 22.7554 40.3569 18.3762L43.4597 11.3494L43.5497 11.1436L43.3294 11.1428ZM16.6637 13.2539C12.7997 15.9248 10.7529 20.5019 6.66087 29.6554L3.76716 36.1259C3.48687 36.7534 3.34715 37.0662 3.48087 37.2951C3.48944 37.3105 3.49887 37.3242 3.50915 37.3379C3.66515 37.5522 4.00801 37.5488 4.69287 37.5394L12.8683 37.4356C22.3843 37.3139 27.1423 37.2531 30.9403 34.8925C31.2009 34.7305 31.4563 34.5616 31.7066 34.3851C35.364 31.8111 37.29 27.4482 41.142 18.7225L44.2449 11.6956C44.5166 11.0776 44.6537 10.7682 44.5217 10.5411C44.513 10.5263 44.5036 10.512 44.4934 10.4982C44.3409 10.2856 44.0032 10.2856 43.3294 10.2856H36.4894C26.4849 10.2856 21.4826 10.2856 17.472 12.7285C17.1977 12.8965 16.9277 13.0714 16.6637 13.2539Z" fill="url(#paint8_linear_4918_1633)" fill-opacity="0.4"/>
      <path fill-rule="evenodd" clip-rule="evenodd" d="M43.3294 11.1428H36.4894C31.47 11.1428 27.7689 11.1436 24.8203 11.4436C21.8897 11.7419 19.7752 12.3299 17.9177 13.4614C17.6573 13.6197 17.4015 13.7855 17.1506 13.9585C15.3609 15.1962 13.9603 16.8908 12.4903 19.4502C11.0109 22.0268 9.49544 25.4125 7.44173 30.0051L4.54887 36.4756L4.45544 36.6856L4.68173 36.6831L12.8563 36.5785C17.6314 36.5176 21.15 36.4714 23.9503 36.1516C26.7326 35.8345 28.734 35.2542 30.4869 34.1639C30.7337 34.0114 30.9754 33.8511 31.212 33.6839C32.9006 32.4959 34.2206 30.8785 35.6049 28.4382C36.9994 25.9808 38.4249 22.7554 40.3569 18.3762L43.4597 11.3494L43.5497 11.1436L43.3294 11.1428ZM16.6637 13.2539C12.7997 15.9248 10.7529 20.5019 6.66087 29.6554L3.76716 36.1259C3.48687 36.7534 3.34715 37.0662 3.48087 37.2951C3.48944 37.3105 3.49887 37.3242 3.50915 37.3379C3.66515 37.5522 4.00801 37.5488 4.69287 37.5394L12.8683 37.4356C22.3843 37.3139 27.1423 37.2531 30.9403 34.8925C31.2009 34.7305 31.4563 34.5616 31.7066 34.3851C35.364 31.8111 37.29 27.4482 41.142 18.7225L44.2449 11.6956C44.5166 11.0776 44.6537 10.7682 44.5217 10.5411C44.513 10.5263 44.5036 10.512 44.4934 10.4982C44.3409 10.2856 44.0032 10.2856 43.3294 10.2856H36.4894C26.4849 10.2856 21.4826 10.2856 17.472 12.7285C17.1977 12.8965 16.9277 13.0714 16.6637 13.2539Z" fill="url(#paint9_linear_4918_1633)" fill-opacity="0.2"/>
      <path fill-rule="evenodd" clip-rule="evenodd" d="M43.3294 10.7142H36.4894C31.4786 10.7142 27.7526 10.7142 24.7766 11.0176C21.8109 11.3194 19.626 11.9185 17.6949 13.0954C17.4274 13.2582 17.1643 13.4288 16.9063 13.6071C15.0463 14.8928 13.6063 16.6456 12.1192 19.2368C10.626 21.8356 9.10116 25.2454 7.05087 29.8302L4.15801 36.3008C4.0123 36.6265 3.9223 36.8288 3.87944 36.9779C3.8694 37.0107 3.86223 37.0442 3.85801 37.0782C3.89025 37.0876 3.92323 37.0942 3.95658 37.0979C4.11087 37.1176 4.3303 37.1151 4.68687 37.1116L12.8623 37.0071C17.628 36.9462 21.1723 36.8999 23.9992 36.5785C26.8166 36.2562 28.8874 35.6631 30.7132 34.5282C30.9669 34.3705 31.2146 34.2068 31.4589 34.0354C33.2177 32.7976 34.5754 31.1211 35.9777 28.6491C37.3852 26.1694 38.82 22.9199 40.7494 18.5494L43.8514 11.5225C43.9929 11.2011 44.0794 11.0022 44.1214 10.8548C44.1311 10.8229 44.138 10.7902 44.142 10.7571C44.1104 10.7474 44.078 10.7406 44.0452 10.7365C43.8952 10.7151 43.6792 10.7142 43.3294 10.7142ZM44.1634 10.7656C44.1634 10.7656 44.1617 10.7656 44.1592 10.7631L44.1634 10.7656ZM3.83744 37.0696C3.83744 37.0696 3.83915 37.0696 3.84173 37.0722L3.83744 37.0696ZM16.6637 13.2539C12.7997 15.9248 10.7529 20.5019 6.66087 29.6554L3.76716 36.1259C3.48687 36.7534 3.34715 37.0662 3.48087 37.2951C3.48944 37.3105 3.49887 37.3242 3.50915 37.3379C3.66515 37.5522 4.00801 37.5488 4.69287 37.5394L12.8683 37.4356C22.3843 37.3139 27.1423 37.2531 30.9403 34.8925C31.2009 34.7305 31.4563 34.5616 31.7066 34.3851C35.364 31.8111 37.29 27.4482 41.142 18.7225L44.2449 11.6956C44.5166 11.0776 44.6537 10.7682 44.5217 10.5411C44.513 10.5263 44.5036 10.512 44.4934 10.4982C44.3409 10.2856 44.0032 10.2856 43.3294 10.2856H36.4894C26.4849 10.2856 21.4826 10.2856 17.472 12.7285C17.1977 12.8965 16.9277 13.0714 16.6637 13.2539Z" fill="black" fill-opacity="0.05"/>
      <path fill-rule="evenodd" clip-rule="evenodd" d="M43.3294 10.7142H36.4894C31.4786 10.7142 27.7526 10.7142 24.7766 11.0176C21.8109 11.3194 19.626 11.9185 17.6949 13.0954C17.4274 13.2582 17.1643 13.4288 16.9063 13.6071C15.0463 14.8928 13.6063 16.6456 12.1192 19.2368C10.626 21.8356 9.10116 25.2454 7.05087 29.8302L4.15801 36.3008C4.0123 36.6265 3.9223 36.8288 3.87944 36.9779C3.8694 37.0107 3.86223 37.0442 3.85801 37.0782C3.89025 37.0876 3.92323 37.0942 3.95658 37.0979C4.11087 37.1176 4.3303 37.1151 4.68687 37.1116L12.8623 37.0071C17.628 36.9462 21.1723 36.8999 23.9992 36.5785C26.8166 36.2562 28.8874 35.6631 30.7132 34.5282C30.9669 34.3705 31.2146 34.2068 31.4589 34.0354C33.2177 32.7976 34.5754 31.1211 35.9777 28.6491C37.3852 26.1694 38.82 22.9199 40.7494 18.5494L43.8514 11.5225C43.9929 11.2011 44.0794 11.0022 44.1214 10.8548C44.1311 10.8229 44.138 10.7902 44.142 10.7571C44.1104 10.7474 44.078 10.7406 44.0452 10.7365C43.8952 10.7151 43.6792 10.7142 43.3294 10.7142ZM44.1634 10.7656C44.1634 10.7656 44.1617 10.7656 44.1592 10.7631L44.1634 10.7656ZM3.83744 37.0696C3.83744 37.0696 3.83915 37.0696 3.84173 37.0722L3.83744 37.0696ZM16.6637 13.2539C12.7997 15.9248 10.7529 20.5019 6.66087 29.6554L3.76716 36.1259C3.48687 36.7534 3.34715 37.0662 3.48087 37.2951C3.48944 37.3105 3.49887 37.3242 3.50915 37.3379C3.66515 37.5522 4.00801 37.5488 4.69287 37.5394L12.8683 37.4356C22.3843 37.3139 27.1423 37.2531 30.9403 34.8925C31.2009 34.7305 31.4563 34.5616 31.7066 34.3851C35.364 31.8111 37.29 27.4482 41.142 18.7225L44.2449 11.6956C44.5166 11.0776 44.6537 10.7682 44.5217 10.5411C44.513 10.5263 44.5036 10.512 44.4934 10.4982C44.3409 10.2856 44.0032 10.2856 43.3294 10.2856H36.4894C26.4849 10.2856 21.4826 10.2856 17.472 12.7285C17.1977 12.8965 16.9277 13.0714 16.6637 13.2539Z" fill="url(#paint10_linear_4918_1633)" fill-opacity="0.2"/>
      <path fill-rule="evenodd" clip-rule="evenodd" d="M43.3294 10.7142H36.4894C31.4786 10.7142 27.7526 10.7142 24.7766 11.0176C21.8109 11.3194 19.626 11.9185 17.6949 13.0954C17.4274 13.2582 17.1643 13.4288 16.9063 13.6071C15.0463 14.8928 13.6063 16.6456 12.1192 19.2368C10.626 21.8356 9.10116 25.2454 7.05087 29.8302L4.15801 36.3008C4.0123 36.6265 3.9223 36.8288 3.87944 36.9779C3.8694 37.0107 3.86223 37.0442 3.85801 37.0782C3.89025 37.0876 3.92323 37.0942 3.95658 37.0979C4.11087 37.1176 4.3303 37.1151 4.68687 37.1116L12.8623 37.0071C17.628 36.9462 21.1723 36.8999 23.9992 36.5785C26.8166 36.2562 28.8874 35.6631 30.7132 34.5282C30.9669 34.3705 31.2146 34.2068 31.4589 34.0354C33.2177 32.7976 34.5754 31.1211 35.9777 28.6491C37.3852 26.1694 38.82 22.9199 40.7494 18.5494L43.8514 11.5225C43.9929 11.2011 44.0794 11.0022 44.1214 10.8548C44.1311 10.8229 44.138 10.7902 44.142 10.7571C44.1104 10.7474 44.078 10.7406 44.0452 10.7365C43.8952 10.7151 43.6792 10.7142 43.3294 10.7142ZM44.1634 10.7656C44.1634 10.7656 44.1617 10.7656 44.1592 10.7631L44.1634 10.7656ZM3.83744 37.0696C3.83744 37.0696 3.83915 37.0696 3.84173 37.0722L3.83744 37.0696ZM16.6637 13.2539C12.7997 15.9248 10.7529 20.5019 6.66087 29.6554L3.76716 36.1259C3.48687 36.7534 3.34715 37.0662 3.48087 37.2951C3.48944 37.3105 3.49887 37.3242 3.50915 37.3379C3.66515 37.5522 4.00801 37.5488 4.69287 37.5394L12.8683 37.4356C22.3843 37.3139 27.1423 37.2531 30.9403 34.8925C31.2009 34.7305 31.4563 34.5616 31.7066 34.3851C35.364 31.8111 37.29 27.4482 41.142 18.7225L44.2449 11.6956C44.5166 11.0776 44.6537 10.7682 44.5217 10.5411C44.513 10.5263 44.5036 10.512 44.4934 10.4982C44.3409 10.2856 44.0032 10.2856 43.3294 10.2856H36.4894C26.4849 10.2856 21.4826 10.2856 17.472 12.7285C17.1977 12.8965 16.9277 13.0714 16.6637 13.2539Z" fill="url(#paint11_linear_4918_1633)" fill-opacity="0.1"/>
      <path fill-rule="evenodd" clip-rule="evenodd" d="M43.3294 10.7142H36.4894C31.4786 10.7142 27.7526 10.7142 24.7766 11.0176C21.8109 11.3194 19.626 11.9185 17.6949 13.0954C17.4274 13.2582 17.1643 13.4288 16.9063 13.6071C15.0463 14.8928 13.6063 16.6456 12.1192 19.2368C10.626 21.8356 9.10116 25.2454 7.05087 29.8302L4.15801 36.3008C4.0123 36.6265 3.9223 36.8288 3.87944 36.9779C3.8694 37.0107 3.86223 37.0442 3.85801 37.0782C3.89025 37.0876 3.92323 37.0942 3.95658 37.0979C4.11087 37.1176 4.3303 37.1151 4.68687 37.1116L12.8623 37.0071C17.628 36.9462 21.1723 36.8999 23.9992 36.5785C26.8166 36.2562 28.8874 35.6631 30.7132 34.5282C30.9669 34.3705 31.2146 34.2068 31.4589 34.0354C33.2177 32.7976 34.5754 31.1211 35.9777 28.6491C37.3852 26.1694 38.82 22.9199 40.7494 18.5494L43.8514 11.5225C43.9929 11.2011 44.0794 11.0022 44.1214 10.8548C44.1311 10.8229 44.138 10.7902 44.142 10.7571C44.1104 10.7474 44.078 10.7406 44.0452 10.7365C43.8952 10.7151 43.6792 10.7142 43.3294 10.7142ZM44.1634 10.7656C44.1634 10.7656 44.1617 10.7656 44.1592 10.7631L44.1634 10.7656ZM3.83744 37.0696C3.83744 37.0696 3.83915 37.0696 3.84173 37.0722L3.83744 37.0696ZM16.6637 13.2539C12.7997 15.9248 10.7529 20.5019 6.66087 29.6554L3.76716 36.1259C3.48687 36.7534 3.34715 37.0662 3.48087 37.2951C3.48944 37.3105 3.49887 37.3242 3.50915 37.3379C3.66515 37.5522 4.00801 37.5488 4.69287 37.5394L12.8683 37.4356C22.3843 37.3139 27.1423 37.2531 30.9403 34.8925C31.2009 34.7305 31.4563 34.5616 31.7066 34.3851C35.364 31.8111 37.29 27.4482 41.142 18.7225L44.2449 11.6956C44.5166 11.0776 44.6537 10.7682 44.5217 10.5411C44.513 10.5263 44.5036 10.512 44.4934 10.4982C44.3409 10.2856 44.0032 10.2856 43.3294 10.2856H36.4894C26.4849 10.2856 21.4826 10.2856 17.472 12.7285C17.1977 12.8965 16.9277 13.0714 16.6637 13.2539Z" fill="url(#paint12_radial_4918_1633)"/>
      <path fill-rule="evenodd" clip-rule="evenodd" d="M3.95683 37.0971C4.11112 37.1176 4.33055 37.1159 4.68712 37.1116L10.6691 37.0345L13.5097 36.4611L20.2871 30.0822L12.9131 25.8136L6.09369 31.9714L4.1574 36.2999C4.01169 36.6265 3.92169 36.8288 3.87883 36.9788C3.86884 37.0112 3.86167 37.0445 3.8574 37.0782C3.88964 37.0876 3.92262 37.0942 3.95597 37.0979L3.95683 37.0971ZM5.73969 31.7142L12.8574 25.2856L21.0003 29.9999L13.7145 36.8571L10.7145 37.4631L4.69226 37.5402C4.00655 37.5488 3.66454 37.5531 3.50854 37.3388C3.49841 37.325 3.48897 37.3107 3.48026 37.2959C3.34569 37.0662 3.48626 36.7534 3.76655 36.1259L5.73969 31.7142Z" fill="url(#paint13_radial_4918_1633)"/>
      <path d="M6.18469 29.8894C4.04954 36.1105 3.20269 37.2145 4.82183 37.8402L4.30754 39.3128L1.80469 38.0982L3.93897 29.1162L6.18469 29.8894Z" fill="url(#paint14_linear_4918_1633)"/>
      </g>
      <path d="M37.7144 0.428711H10.2859C4.8419 0.428711 0.428711 4.8419 0.428711 10.2859V37.7144C0.428711 43.1584 4.8419 47.5716 10.2859 47.5716H37.7144C43.1584 47.5716 47.5716 43.1584 47.5716 37.7144V10.2859C47.5716 4.8419 43.1584 0.428711 37.7144 0.428711Z" stroke="#DBDFEC"/>
      </g>
      <defs>
      <linearGradient id="paint0_linear_4918_1633" x1="7.71443" y1="34.7142" x2="22.2859" y2="23.9999" gradientUnits="userSpaceOnUse">
      <stop stop-color="#8ADAFF"/>
      <stop offset="1" stop-color="#5AAFFE"/>
      </linearGradient>
      <linearGradient id="paint1_linear_4918_1633" x1="26.5715" y1="22.2857" x2="12.7257" y2="33.5074" gradientUnits="userSpaceOnUse">
      <stop stop-color="#59A2FF"/>
      <stop offset="1" stop-color="#60C0FE"/>
      </linearGradient>
      <linearGradient id="paint2_linear_4918_1633" x1="27.8576" y1="21.4283" x2="14.0119" y2="32.65" gradientUnits="userSpaceOnUse">
      <stop stop-color="#59A2FF"/>
      <stop offset="1" stop-color="#60C0FE" stop-opacity="0.57"/>
      </linearGradient>
      <linearGradient id="paint3_linear_4918_1633" x1="28.7151" y1="20.9141" x2="14.8693" y2="32.1358" gradientUnits="userSpaceOnUse">
      <stop stop-color="#59A2FF"/>
      <stop offset="1" stop-color="#60C0FE" stop-opacity="0.33"/>
      </linearGradient>
      <radialGradient id="paint4_radial_4918_1633" cx="0" cy="0" r="1" gradientUnits="userSpaceOnUse" gradientTransform="translate(25.2856 20.1423) rotate(121.607) scale(6.54186 21.2977)">
      <stop stop-color="#82A2E5"/>
      <stop offset="1" stop-color="#5EACFE" stop-opacity="0"/>
      </radialGradient>
      <linearGradient id="paint5_linear_4918_1633" x1="40.2857" y1="13.2856" x2="18.4285" y2="19.7142" gradientUnits="userSpaceOnUse">
      <stop stop-color="#FF843B"/>
      <stop offset="1" stop-color="#FF8F57"/>
      </linearGradient>
      <radialGradient id="paint6_radial_4918_1633" cx="0" cy="0" r="1" gradientUnits="userSpaceOnUse" gradientTransform="translate(34.2855 21.0015) rotate(-176.1) scale(18.9009 28.0546)">
      <stop stop-color="#FF6012"/>
      <stop offset="1" stop-color="#FF8D51" stop-opacity="0"/>
      </radialGradient>
      <linearGradient id="paint7_linear_4918_1633" x1="33.4285" y1="23.9999" x2="24" y2="35.9999" gradientUnits="userSpaceOnUse">
      <stop stop-color="#FF843B" stop-opacity="0"/>
      <stop offset="1" stop-color="#FF9973"/>
      </linearGradient>
      <linearGradient id="paint8_linear_4918_1633" x1="15.5346" y1="16.9692" x2="20.0991" y2="23.3005" gradientUnits="userSpaceOnUse">
      <stop stop-color="white"/>
      <stop offset="1" stop-color="white" stop-opacity="0"/>
      </linearGradient>
      <linearGradient id="paint9_linear_4918_1633" x1="16.2708" y1="38.2822" x2="16.3812" y2="34.4539" gradientUnits="userSpaceOnUse">
      <stop stop-color="white"/>
      <stop offset="1" stop-color="white" stop-opacity="0"/>
      </linearGradient>
      <linearGradient id="paint10_linear_4918_1633" x1="5.14373" y1="32.9999" x2="8.14373" y2="33.4285" gradientUnits="userSpaceOnUse">
      <stop stop-color="#4FA4FF"/>
      <stop offset="1" stop-color="#4FA4FF" stop-opacity="0"/>
      </linearGradient>
      <linearGradient id="paint11_linear_4918_1633" x1="15.0009" y1="17.9999" x2="20.5723" y2="23.1428" gradientUnits="userSpaceOnUse">
      <stop stop-color="#9D3800"/>
      <stop offset="1" stop-opacity="0"/>
      </linearGradient>
      <radialGradient id="paint12_radial_4918_1633" cx="0" cy="0" r="1" gradientUnits="userSpaceOnUse" gradientTransform="translate(5.14373 33.4285) rotate(17.1985) scale(18.8425 12.5087)">
      <stop stop-color="#5FB0FF"/>
      <stop offset="1" stop-color="#92DEFF" stop-opacity="0"/>
      </radialGradient>
      <radialGradient id="paint13_radial_4918_1633" cx="0" cy="0" r="1" gradientUnits="userSpaceOnUse" gradientTransform="translate(6.8574 38.5714) rotate(-63.435) scale(9.58311 6.36184)">
      <stop stop-color="#AFFEFF" stop-opacity="0.71"/>
      <stop offset="1" stop-color="#92DEFF" stop-opacity="0"/>
      </radialGradient>
      <linearGradient id="paint14_linear_4918_1633" x1="3.75501" y1="34.8957" x2="4.15993" y2="37.6564" gradientUnits="userSpaceOnUse">
      <stop stop-color="#55A5FF" stop-opacity="0"/>
      <stop offset="0.765259" stop-color="#55A5FF" stop-opacity="0.34"/>
      <stop offset="1" stop-color="#55A5FF" stop-opacity="0"/>
      </linearGradient>
      <clipPath id="clip0_4918_1633">
      <rect width="48" height="48" fill="white"/>
      </clipPath>
      </defs>
    </symbol>
</svg>
